<svg id="SvgjsSvg1001" width="288" height="288" xmlns="http://www.w3.org/2000/svg" version="1.1" xmlns:xlink="http://www.w3.org/1999/xlink" xmlns:svgjs="http://svgjs.com/svgjs"><defs id="SvgjsDefs1002"></defs><g id="SvgjsG1008"><svg xmlns="http://www.w3.org/2000/svg" data-name="Layer 1" viewBox="0 0 64 64" width="288" height="288"><path fill="#ff5151" d="M61.503 27.609a1.008 1.008 0 0 1-.74.98c-5.318 1.474-10.645 2.927-15.97 4.4l-9.9-9.9.58-.84 10.58-15.22a.98.98 0 0 1 1.17-.37c9.172 3.392 14.436 12.811 14.28 20.95Z" class="colorccdde7 svgShape"></path><path fill="#ff5151" d="M40.553 37.229c-.16.705-1.118 5.612-1.29 6.44a.974.974 0 0 1-.74.78l-18.02 4.35a1.059 1.059 0 0 1-1.42-1.42l4.35-18.02a.974.974 0 0 1 .78-.74c.854-.175 5.704-1.13 6.44-1.29l9.9 9.9Z" class="color168fd6 svgShape"></path><path d="m35.603 32.279 4.95 4.95-.24 1.17-10.83-10.83 1.17-.24 4.95 4.95zM45.903 32.679c-.37.11-.74.21-1.11.31l-9.9-9.9.58-.84Z" opacity=".1"></path><path fill="#ff5151" d="m40.554 37.225-9.9-9.9 4.243-4.242 9.9 9.9z" class="color044388 svgShape"></path><path fill="#ffffff" d="m29.953 39.349-9.45 9.45a1.059 1.059 0 0 1-1.42-1.42l9.45-9.45a1.004 1.004 0 0 1 1.42 1.42Z" class="colorfff svgShape"></path><path fill="#ff5151" d="M17.493 55.39C2.68 49.906 5.309 27.043 5.503 26.252a1 1 0 0 1 1.981.27c-.029.213-2.728 21.319 10.403 26.947a1.005 1.005 0 0 1-.394 1.92Z" class="color168fd6 svgShape"></path><path fill="#ff5151" d="M15.493 55.389h-8a1 1 0 0 1 0-2h8a1 1 0 0 1 0 2Z" class="color168fd6 svgShape"></path><path fill="#ff5151" d="M8.493 54.389a3 3 0 0 1-6 0 3 3 0 0 1 6 0Z" class="colorccdde7 svgShape"></path><path fill="#ff5151" d="M48.493 55.389h-29a1 1 0 0 1 0-2h29a1 1 0 0 1 0 2Z" class="color168fd6 svgShape"></path><path fill="#ff5151" d="M47.493 54.389a3 3 0 0 0 6 0 3 3 0 0 0-6 0Z" class="colorccdde7 svgShape"></path><path fill="#ff5151" d="M19.493 57.389c-5.982-.094-4.905.977-5-5a1 1 0 0 1 1-1h4a1 1 0 0 1 1 1v4a1 1 0 0 1-1 1zm-11-28c-5.982-.094-4.905.977-5-5a1 1 0 0 1 1-1h4a1 1 0 0 1 1 1v4a1 1 0 0 1-1 1z" class="color044388 svgShape"></path></svg></g></svg>